<svg height="512" viewBox="0 0 58 58" width="512" xmlns="http://www.w3.org/2000/svg"><g id="Page-1" fill="none" fill-rule="evenodd"><g id="037---Cloud-Profile" fill-rule="nonzero" transform="translate(0 -1)"><path id="Rectangle-path" d="m28 46h2v6h-2z" fill="#547580"/><path id="Shape" d="m58 26c0 6.0751322-4.9248678 11-11 11h-36c-6.07513225 0-11-4.9248678-11-11s4.92486775-11 11-11c.623565-.0030798 1.2461215.0504735 1.86.16 1.427149-3.0326141 4.4212431-5.02097 7.77-5.16 1.9678376-6.08875505 8.0738821-9.84005753 14.3946544-8.84348326s10.976386 6.4446301 10.9753456 12.84348326c.019924.3497165.019924.7002835 0 1.05.34 0 .7-.05 1-.05 6.0751322 0 11 4.9248678 11 11z" fill="#46b29d"/><path id="Shape" d="m58 26c0 6.0751322-4.9248678 11-11 11h-5.11c0-24.93-21.26-27-21.26-27 1.9678376-6.08875505 8.0738821-9.84005753 14.3946544-8.84348326s10.976386 6.4446301 10.9753456 12.84348326c.019924.3497165.019924.7002835 0 1.05.34 0 .7-.05 1-.05 6.0751322 0 11 4.9248678 11 11z" fill="#81ccb8"/><path id="Shape" d="m39.83 9.15c-.2923118.00001923-.5699973-.12786225-.76-.35-1.5177498-1.77444941-3.7349995-2.79723347-6.07-2.8-.5522847 0-1-.44771525-1-1s.4477153-1 1-1c2.9180174.00022682 5.6903707 1.27499794 7.59 3.49.1724034.201559.2576705.46335301.2370412.72778336-.0206293.26443034-.145465.50983336-.3470412.68221664-.179713.15852397-.4103774.24724105-.65.25z" fill="#fff"/><circle id="Oval" cx="29" cy="32" fill="#ff5364" r="15"/><circle id="Oval" cx="29" cy="29" fill="#f9c795" r="7"/><rect id="Rectangle-path" fill="#35495e" height="8" rx="2" width="36" x="11" y="51"/><g fill="#2980ba"><path id="Shape" d="m17 56h-1c-.5522847 0-1-.4477153-1-1s.4477153-1 1-1h1c.5522847 0 1 .4477153 1 1s-.4477153 1-1 1z"/><path id="Shape" d="m22 56h-1c-.5522847 0-1-.4477153-1-1s.4477153-1 1-1h1c.5522847 0 1 .4477153 1 1s-.4477153 1-1 1z"/><path id="Shape" d="m27 56h-1c-.5522847 0-1-.4477153-1-1s.4477153-1 1-1h1c.5522847 0 1 .4477153 1 1s-.4477153 1-1 1z"/><path id="Shape" d="m32 56h-1c-.5522847 0-1-.4477153-1-1s.4477153-1 1-1h1c.5522847 0 1 .4477153 1 1s-.4477153 1-1 1z"/><path id="Shape" d="m37 56h-1c-.5522847 0-1-.4477153-1-1s.4477153-1 1-1h1c.5522847 0 1 .4477153 1 1s-.4477153 1-1 1z"/><path id="Shape" d="m42 56h-1c-.5522847 0-1-.4477153-1-1s.4477153-1 1-1h1c.5522847 0 1 .4477153 1 1s-.4477153 1-1 1z"/></g><path id="Shape" d="m41 41.05c-2.8354115 3.7458513-7.2620259 5.9469121-11.96 5.9469121s-9.1245885-2.2010608-11.96-5.9469121c1.9-2.42 5.47-5 12-5s9.98 2.58 11.92 5z" fill="#7d6599"/></g></g></svg>